<?xml version="1.0" standalone="no"?>
<!DOCTYPE svg PUBLIC "-//W3C//DTD SVG 20010904//EN"
 "http://www.w3.org/TR/2001/REC-SVG-20010904/DTD/svg10.dtd">
<svg version="1.0" xmlns="http://www.w3.org/2000/svg"
 width="4500.000000pt" height="4500.000000pt" viewBox="0 0 4500.000000 4500.000000"
 preserveAspectRatio="xMidYMid meet">
<metadata>
Created by potrace 1.16, written by Peter Selinger 2001-2019
</metadata>
<g transform="translate(0.000000,4500.000000) scale(0.100000,-0.100000)"
fill="#000000" stroke="none">
<path d="M31245 32257 c-4 -305 -4 -1822 0 -3373 4 -1550 7 -2909 6 -3019 -6
-676 -106 -1361 -336 -2300 -41 -165 -81 -338 -89 -385 -66 -360 -34 -650 101
-912 101 -198 313 -354 542 -399 128 -25 322 8 479 82 203 94 347 244 421 438
46 121 56 182 55 346 -1 134 -5 167 -38 317 -60 275 -125 518 -262 975 -104
348 -135 520 -154 840 -13 224 -27 803 -20 803 3 0 42 -28 85 -61 285 -219
542 -338 856 -395 46 -8 152 -17 234 -21 425 -16 823 114 1318 431 306 196
561 407 1017 844 122 117 224 212 226 209 3 -2 15 -74 29 -160 13 -85 33 -192
45 -236 130 -509 445 -871 880 -1009 171 -54 269 -67 530 -67 240 0 319 9 470
52 228 65 449 218 605 418 280 359 426 774 448 1268 l4 97 -143 0 -143 0 -21
-57 c-12 -32 -48 -131 -80 -220 -139 -384 -211 -541 -283 -619 -122 -134 -335
-174 -557 -105 -179 56 -242 143 -320 446 -68 264 -63 0 -67 3323 l-5 3002
-694 0 -694 0 -2 -2772 -3 -2773 -23 -50 c-28 -61 -67 -103 -152 -163 -36 -26
-135 -99 -220 -163 -355 -267 -633 -436 -879 -534 -393 -156 -839 -147 -1157
24 -100 54 -173 111 -267 210 -217 227 -342 541 -377 941 -6 72 -10 1075 -10
2698 l0 2582 -674 0 -674 0 -7 -553z"/>
<path d="M5310 21341 l0 -5381 780 0 780 0 0 2123 0 2124 498 6 c654 9 933 29
1322 92 1645 270 2770 1204 3105 2578 82 338 109 580 109 1002 0 490 -45 817
-160 1163 -230 691 -676 1130 -1410 1385 -411 143 -853 222 -1494 268 -101 8
-747 13 -1842 16 l-1688 5 0 -5381z m3075 4165 c496 -48 820 -128 1110 -271
537 -266 786 -776 762 -1565 -17 -557 -173 -1016 -467 -1375 -70 -85 -243
-254 -325 -316 -303 -231 -676 -393 -1105 -479 -318 -64 -499 -79 -1052 -87
l-438 -6 0 2062 0 2063 678 -5 c511 -4 716 -9 837 -21z"/>
<path d="M12800 25980 l0 -740 740 0 740 0 0 740 0 740 -740 0 -740 0 0 -740z"/>
<path d="M19305 24030 c-957 -66 -1701 -340 -2310 -852 -120 -101 -332 -319
-432 -445 -475 -596 -733 -1301 -819 -2233 -33 -355 -23 -886 22 -1250 94
-754 369 -1453 792 -2014 612 -814 1409 -1295 2352 -1421 716 -95 1667 22
2755 338 l180 52 3 643 c1 440 -1 642 -8 642 -6 0 -33 -11 -60 -25 -198 -100
-614 -257 -877 -329 -491 -136 -1027 -185 -1433 -132 -581 78 -1065 353 -1443
821 -341 423 -542 937 -624 1595 -22 182 -25 776 -5 965 76 700 277 1244 622
1680 87 110 267 293 370 375 299 238 671 392 1065 439 507 61 1264 -45 2144
-299 77 -22 144 -40 150 -40 8 0 10 180 9 622 l-3 623 -125 27 c-416 90 -919
166 -1350 204 -209 18 -792 26 -975 14z"/>
<path d="M26055 24034 c-1137 -72 -1998 -495 -2634 -1293 -413 -519 -691
-1203 -796 -1960 -65 -470 -73 -1099 -20 -1566 115 -1005 481 -1820 1095
-2435 578 -580 1278 -895 2175 -982 167 -16 680 -16 855 1 543 50 998 171
1405 373 348 172 575 337 860 623 181 181 300 324 425 510 337 503 552 1114
640 1815 60 476 65 1033 14 1490 -132 1196 -625 2129 -1449 2745 -493 368
-1071 583 -1780 661 -134 14 -656 26 -790 18z m655 -1138 c256 -36 447 -93
655 -196 496 -246 827 -689 1015 -1354 185 -659 222 -1644 90 -2433 -138 -823
-464 -1393 -980 -1714 -231 -143 -522 -239 -855 -280 -129 -16 -512 -16 -640
0 -937 118 -1502 688 -1739 1756 -76 344 -106 637 -113 1115 -7 486 12 787 73
1150 199 1184 811 1853 1794 1960 52 5 111 12 130 14 72 9 469 -4 570 -18z"/>
<path d="M12800 19915 l0 -3955 740 0 740 0 0 3955 0 3955 -740 0 -740 0 0
-3955z"/>
</g>
</svg>
