<?xml version="1.0" standalone="no"?>
<!DOCTYPE svg PUBLIC "-//W3C//DTD SVG 20010904//EN"
 "http://www.w3.org/TR/2001/REC-SVG-20010904/DTD/svg10.dtd">
<svg version="1.0" xmlns="http://www.w3.org/2000/svg"
 width="4000.000000pt" height="4000.000000pt" viewBox="0 0 4000.000000 4000.000000"
 preserveAspectRatio="xMidYMid meet">
<metadata>
Created by potrace 1.16, written by Peter Selinger 2001-2019
</metadata>
<g transform="translate(0.000000,4000.000000) scale(0.100000,-0.100000)"
fill="#000000" stroke="none">
<path d="M21865 37057 c-132 -64 -179 -131 -200 -283 -9 -63 -16 -275 -20
-632 -3 -295 -8 -548 -11 -562 -3 -14 -41 -90 -84 -170 -43 -80 -99 -185 -125
-235 -26 -49 -51 -94 -55 -100 -13 -17 -392 -778 -498 -1000 -230 -484 -642
-1381 -642 -1400 0 -2 -11 -28 -24 -57 -14 -29 -57 -129 -97 -223 -39 -93
-101 -237 -136 -320 -137 -317 -429 -1070 -605 -1560 -171 -476 -279 -789
-379 -1095 -44 -135 -98 -297 -120 -360 -35 -101 -60 -179 -138 -435 -68 -223
-106 -354 -131 -445 -15 -58 -47 -175 -70 -260 -118 -436 -279 -1069 -345
-1360 -7 -30 -22 -93 -34 -140 -55 -228 -254 -1205 -267 -1313 -3 -29 -14 -79
-24 -112 -10 -33 -28 -121 -40 -195 -12 -74 -39 -245 -60 -380 -22 -135 -44
-279 -49 -320 -5 -41 -30 -228 -55 -415 -65 -485 -66 -495 -66 -545 0 -25 -7
-83 -16 -130 -20 -111 -33 -201 -39 -275 -3 -33 -7 -73 -10 -90 -4 -16 -9 -75
-11 -130 -3 -55 -10 -107 -15 -117 -5 -9 -9 -53 -9 -97 l0 -81 -60 0 c-50 0
-65 -4 -84 -23 -55 -55 -85 -346 -121 -1172 -2 -60 -7 -305 -11 -542 l-7 -433
-1830 0 -1829 0 14 23 c36 55 3218 5474 3224 5490 6 16 -17 17 -426 15 l-432
-3 -1500 -2545 c-1477 -2504 -1553 -2635 -1595 -2735 l-21 -50 -1 220 c-1 121
-8 1109 -16 2195 -8 1086 -15 2188 -15 2448 l0 472 -360 0 -360 0 0 -5975 0
-5975 360 0 360 0 1 3088 1 3087 42 -125 c42 -121 96 -216 1769 -3085 l1725
-2960 486 -3 486 -2 -59 97 c-172 286 -3641 6153 -3641 6158 0 3 814 5 1808 5
l1809 0 7 -487 c3 -269 9 -537 11 -598 24 -531 44 -824 65 -976 27 -191 45
-219 138 -219 l59 0 7 -102 c10 -169 23 -305 30 -316 3 -6 6 -46 7 -89 0 -43
5 -103 9 -133 5 -30 11 -77 14 -105 2 -27 11 -81 19 -120 8 -38 20 -115 27
-170 18 -154 89 -692 100 -765 5 -36 21 -144 36 -240 20 -142 84 -538 108
-675 8 -46 33 -165 45 -210 6 -22 33 -161 61 -310 55 -290 167 -826 201 -965
12 -47 27 -110 34 -140 58 -261 226 -921 345 -1360 23 -85 55 -202 70 -260 25
-91 60 -211 131 -445 10 -33 28 -94 39 -135 12 -41 31 -102 42 -135 64 -184
105 -305 177 -525 115 -354 315 -928 434 -1245 265 -711 408 -1078 524 -1350
50 -115 123 -286 162 -380 40 -93 83 -194 97 -223 13 -29 24 -55 24 -57 0 -19
412 -916 642 -1400 106 -222 485 -983 498 -1000 4 -5 29 -50 55 -100 26 -49
84 -157 129 -240 l81 -150 2 -530 c2 -436 5 -550 19 -644 22 -149 56 -219 132
-273 89 -61 175 -70 270 -25 62 28 93 73 122 174 l24 88 3 8418 3 8417 6675 0
6675 0 0 80 0 80 -6675 0 -6675 0 0 8345 c0 7448 -2 8354 -15 8420 -9 41 -22
86 -30 102 -8 15 -15 33 -15 38 0 6 -14 25 -30 43 -71 77 -170 100 -255 59z"/>
<path d="M31015 25584 c-93 -18 -171 -33 -172 -33 -2 -1 -3 -424 -3 -942 l0
-941 -76 71 c-180 168 -277 220 -476 257 -263 49 -475 26 -668 -71 -310 -157
-551 -508 -664 -968 -107 -436 -114 -1086 -16 -1477 118 -472 363 -839 660
-990 122 -62 252 -90 418 -90 273 0 493 96 767 335 l75 66 0 -161 0 -160 165
0 165 0 0 2570 c0 1414 -1 2569 -2 2569 -2 -1 -79 -16 -173 -35z m-728 -1951
c118 -26 233 -91 404 -228 l149 -120 0 -1082 0 -1081 -67 -62 c-132 -120 -296
-213 -449 -256 -90 -25 -294 -30 -374 -9 -344 89 -594 479 -659 1025 -26 216
-21 572 10 830 16 136 103 463 147 555 101 207 294 376 494 429 75 20 250 20
345 -1z"/>
<path d="M4973 21053 c3 -4173 4 -4544 20 -4738 51 -625 125 -1039 252 -1420
139 -415 318 -704 568 -914 361 -303 841 -469 1509 -522 204 -16 779 -7 958
15 587 74 994 230 1330 512 462 388 724 1123 815 2285 31 404 35 885 35 5087
l0 4222 -370 0 -370 0 0 -4222 c0 -4199 -4 -4653 -35 -5027 -54 -640 -175
-1111 -356 -1391 -236 -366 -607 -577 -1129 -644 -262 -33 -861 -28 -1090 9
-529 86 -906 344 -1109 759 -157 318 -255 821 -291 1491 -6 124 -10 1722 -10
4608 l0 4417 -365 0 -365 0 3 -4527z"/>
<path d="M23290 23030 l0 -2550 180 0 180 0 2 1233 3 1232 865 -1232 865
-1232 248 -1 248 0 -59 78 c-454 599 -1820 2411 -1827 2421 -7 12 16 13 151 7
252 -11 422 18 602 104 238 113 447 325 556 561 46 100 90 244 111 359 22 124
31 419 16 542 -24 206 -101 417 -208 566 -63 89 -187 210 -272 266 -247 164
-441 195 -1223 196 l-438 0 0 -2550z m1115 2190 c346 -73 564 -285 642 -623
26 -111 23 -375 -6 -542 -29 -175 -46 -237 -88 -322 -84 -173 -242 -302 -455
-372 -164 -54 -235 -63 -550 -68 l-298 -5 0 982 0 983 328 -6 c279 -5 342 -9
427 -27z"/>
<path d="M32157 25549 c-65 -11 -123 -68 -148 -148 -6 -20 -14 -104 -16 -187
-6 -169 8 -249 53 -317 42 -63 76 -78 169 -75 95 4 137 27 166 92 35 80 51
328 28 438 -31 147 -123 219 -252 197z"/>
<path d="M34305 24032 c-87 -6 -398 -43 -439 -52 -145 -32 -296 -147 -408
-312 -103 -152 -234 -489 -292 -748 -101 -457 -101 -1033 0 -1460 144 -610
460 -963 939 -1046 132 -24 418 -15 535 16 505 134 805 568 905 1310 22 160
31 588 16 777 -28 363 -92 624 -216 878 -167 345 -413 549 -740 614 -98 19
-220 29 -300 23z m250 -382 c277 -88 456 -304 546 -658 33 -130 89 -622 89
-781 0 -130 -36 -579 -54 -672 -43 -227 -145 -421 -305 -579 -148 -147 -303
-210 -516 -210 -450 0 -708 300 -811 940 -25 161 -32 746 -10 940 69 604 265
934 612 1031 100 28 348 22 449 -11z"/>
<path d="M26959 24009 c-110 -9 -284 -52 -523 -129 -104 -33 -191 -62 -193
-64 -3 -2 20 -84 50 -182 38 -123 59 -178 68 -177 8 1 113 38 234 81 286 104
383 124 610 124 263 0 392 -37 499 -144 126 -127 165 -305 166 -754 l0 -202
-92 24 c-112 29 -225 51 -333 64 -107 14 -420 13 -520 0 -505 -70 -827 -366
-926 -850 -25 -123 -36 -402 -20 -522 61 -456 343 -781 750 -863 118 -24 403
-17 513 13 205 55 340 132 581 327 l57 47 0 -161 0 -161 170 0 170 0 0 1339
c0 1139 -2 1357 -15 1455 -29 217 -94 373 -207 491 -36 39 -91 85 -122 104
-129 78 -355 128 -611 137 -82 2 -166 6 -185 7 -19 2 -74 0 -121 -4z m691
-1717 c63 -12 139 -26 168 -32 l52 -12 0 -527 0 -527 -112 -115 c-221 -224
-403 -309 -662 -309 -313 0 -552 137 -667 384 -45 95 -59 157 -66 281 -9 171
41 400 120 549 38 71 133 168 210 215 73 43 200 87 308 105 127 23 496 15 649
-12z"/>
<path d="M32300 24000 c-41 -10 -119 -28 -172 -40 l-98 -22 0 -1729 0 -1729
175 0 175 0 0 1770 c0 974 -1 1770 -2 1769 -2 0 -37 -9 -78 -19z"/>
<path d="M23568 18258 l-316 -1292 21 -28 c22 -26 24 -27 134 -27 98 -1 112 1
117 17 2 9 52 224 111 477 58 253 108 468 111 478 5 16 27 17 272 17 l267 0
115 -495 115 -496 114 3 c110 3 115 4 134 30 l19 26 -306 1254 c-169 689 -312
1270 -317 1291 l-10 37 -132 0 -132 0 -317 -1292z m556 330 c53 -234 96 -431
96 -437 0 -8 -66 -11 -206 -11 -161 0 -205 3 -202 13 3 6 49 207 104 444 54
238 101 429 105 425 3 -4 50 -199 103 -434z"/>
<path d="M26260 19061 l-95 -26 -3 -148 -3 -147 -73 0 c-63 0 -75 -3 -94 -23
-19 -20 -22 -35 -22 -115 0 -87 1 -92 23 -97 24 -5 148 -25 159 -25 4 0 9
-303 10 -672 4 -746 2 -721 71 -824 80 -121 265 -146 458 -63 l49 21 -1 102
c0 99 -1 101 -29 124 l-29 23 -62 -26 c-113 -46 -173 -28 -190 55 -4 25 -8
318 -9 651 l0 606 143 12 c78 7 150 15 160 17 15 5 17 18 17 98 0 84 -2 95
-23 114 -22 20 -33 22 -160 22 l-137 0 0 153 0 153 -30 22 c-16 12 -30 21 -32
21 -2 -1 -46 -13 -98 -28z"/>
<path d="M25255 18794 c-219 -34 -384 -175 -424 -362 -38 -178 15 -358 144
-487 33 -33 143 -116 244 -185 333 -225 385 -279 383 -396 -1 -82 -24 -129
-79 -164 -127 -81 -341 -62 -514 45 -55 34 -62 36 -94 25 -32 -10 -37 -19 -74
-116 -23 -58 -41 -111 -41 -118 0 -20 206 -113 305 -137 70 -17 121 -22 225
-23 248 0 348 46 455 213 73 114 89 169 89 301 -1 91 -5 127 -22 173 -42 116
-93 163 -402 374 -252 172 -296 207 -326 258 -55 95 -38 220 38 279 109 83
257 74 472 -28 85 -41 105 -43 135 -18 18 15 96 210 88 219 -14 13 -240 106
-299 123 -72 20 -242 33 -303 24z"/>
<path d="M29693 18775 c-72 -13 -158 -49 -240 -100 l-43 -26 0 39 c0 30 -6 42
-28 59 l-29 21 -101 -26 -102 -27 0 -881 0 -881 23 -21 c20 -19 35 -22 108
-22 76 0 88 2 107 23 l22 23 0 696 0 696 58 46 c79 64 186 116 253 123 31 3
89 0 130 -7 66 -11 79 -17 115 -54 30 -30 48 -60 65 -111 l23 -70 4 -660 c4
-779 -10 -705 132 -705 78 0 89 2 109 24 l22 23 -3 719 -3 719 -23 63 c-43
121 -122 213 -232 271 -106 57 -226 72 -367 46z"/>
<path d="M32690 18764 c-36 -7 -100 -31 -142 -52 l-78 -38 0 26 c0 17 -10 33
-29 47 -28 22 -29 22 -102 3 -41 -10 -86 -21 -101 -24 l-28 -6 0 -883 0 -884
23 -21 c20 -19 35 -22 108 -22 76 0 88 2 107 23 l22 23 0 706 0 707 44 36
c184 150 412 134 490 -35 21 -44 21 -60 24 -730 3 -805 -10 -730 127 -730 72
0 84 3 103 23 l22 23 0 691 0 691 55 50 c31 28 86 66 123 84 59 29 76 33 148
33 72 0 86 -3 130 -30 61 -38 101 -102 114 -180 6 -35 10 -332 10 -701 l0
-641 23 -21 c20 -19 35 -22 103 -22 71 0 83 3 102 23 l22 23 0 687 c0 459 -4
704 -11 739 -30 144 -137 287 -260 346 -118 57 -236 64 -377 20 -87 -26 -126
-47 -206 -107 l-66 -50 -53 53 c-64 64 -135 102 -226 122 -81 17 -137 17 -221
-2z"/>
<path d="M34405 18752 c-175 -38 -187 75 103 -961 l247 -881 27 0 26 0 -34
-117 c-33 -112 -87 -239 -116 -273 -42 -50 -109 -63 -202 -39 -35 9 -49 8 -73
-4 -25 -14 -31 -26 -51 -109 -12 -51 -22 -98 -22 -103 0 -15 52 -32 154 -50
117 -20 151 -19 232 6 89 27 165 101 217 209 24 52 133 415 347 1162 l312
1088 -22 30 -21 30 -113 0 -113 0 -15 -52 c-8 -29 -97 -356 -199 -726 -101
-370 -185 -670 -186 -665 -1 4 -86 332 -188 728 -102 396 -189 727 -193 736
-6 14 -18 13 -117 -9z"/>
<path d="M27395 18754 c-40 -8 -104 -30 -147 -53 -65 -32 -78 -36 -78 -22 0
10 -10 27 -23 39 -20 19 -35 22 -108 22 -76 0 -88 -2 -107 -23 l-22 -23 0
-870 0 -871 23 -21 c20 -19 35 -22 108 -22 76 0 88 2 107 23 l22 23 0 701 0
701 37 32 c55 49 91 60 196 60 l94 0 6 53 c18 152 20 217 7 232 -24 29 -44 32
-115 19z"/>
<path d="M28067 18755 c-75 -10 -125 -23 -163 -42 -142 -69 -254 -278 -316
-585 -19 -96 -23 -144 -22 -323 0 -280 29 -433 114 -602 111 -221 279 -326
520 -327 125 -1 191 14 285 63 239 124 365 427 365 881 0 304 -52 530 -160
693 -138 209 -324 282 -623 242z m279 -287 c91 -48 155 -139 188 -273 9 -33
22 -130 31 -215 13 -128 14 -180 5 -305 -18 -244 -51 -337 -154 -441 -70 -70
-126 -94 -217 -94 -173 0 -284 119 -336 361 -15 68 -18 129 -18 324 1 210 3
251 22 333 41 171 105 270 207 319 71 34 196 29 272 -9z"/>
<path d="M31127 18755 c-75 -10 -125 -23 -163 -42 -142 -69 -254 -278 -316
-585 -19 -96 -23 -144 -22 -323 0 -280 29 -433 114 -602 111 -221 279 -326
520 -327 125 -1 191 14 285 63 239 124 365 427 365 881 0 304 -52 530 -160
693 -138 209 -324 282 -623 242z m279 -287 c91 -48 155 -139 188 -273 9 -33
22 -130 31 -215 13 -128 14 -180 5 -305 -18 -244 -51 -337 -154 -441 -70 -70
-126 -94 -217 -94 -173 0 -284 119 -336 361 -15 68 -18 129 -18 324 1 210 3
251 22 333 41 171 105 270 207 319 71 34 196 29 272 -9z"/>
<path d="M23850 16175 c0 -2 -133 -578 -295 -1279 -162 -700 -295 -1283 -295
-1293 0 -11 10 -29 23 -41 21 -20 34 -22 125 -22 56 0 102 1 102 3 0 1 49 223
108 492 l108 490 252 3 c139 1 252 1 252 0 1 -2 49 -223 109 -493 l108 -490
108 0 c105 0 108 1 128 27 l20 27 -299 1290 -298 1291 -128 0 c-71 0 -128 -2
-128 -5z m223 -940 c49 -228 91 -424 94 -435 5 -19 0 -20 -187 -20 l-192 0 4
24 c24 124 184 846 188 846 3 0 45 -187 93 -415z"/>
<path d="M29845 16156 c-65 -29 -89 -90 -89 -221 1 -151 47 -221 145 -219 55
1 92 22 116 67 14 25 17 58 18 152 0 102 -3 125 -20 154 -39 67 -110 95 -170
67z"/>
<path d="M32535 16156 c-65 -29 -89 -90 -89 -221 1 -151 47 -221 145 -219 55
1 92 22 116 67 14 25 17 58 18 152 0 102 -3 125 -20 154 -39 67 -110 95 -170
67z"/>
<path d="M31830 15686 l-75 -23 -3 -146 -3 -147 -68 0 c-58 0 -71 -3 -89 -23
-19 -20 -22 -35 -22 -115 0 -51 1 -92 3 -92 1 0 40 -7 87 -15 47 -8 86 -15 88
-15 1 0 2 -289 2 -642 0 -696 3 -735 54 -823 32 -54 83 -99 133 -116 75 -27
230 -13 326 28 l37 16 -1 101 c0 98 -1 102 -28 123 l-27 21 -54 -19 c-107 -38
-169 -20 -184 53 -3 17 -6 307 -6 644 0 532 2 614 15 614 21 0 215 20 253 26
l32 5 0 93 c0 84 -2 95 -23 114 -21 20 -34 22 -150 22 l-127 0 0 154 c0 152 0
154 -25 170 -31 20 -53 19 -145 -8z"/>
<path d="M25139 15419 c-131 -19 -255 -93 -324 -194 -54 -77 -76 -161 -76
-280 0 -121 23 -206 80 -291 56 -84 103 -126 296 -264 288 -208 343 -262 360
-351 11 -60 -11 -141 -48 -176 -55 -52 -94 -66 -194 -71 -80 -4 -105 -1 -175
22 -46 14 -109 42 -142 61 -53 32 -61 35 -91 25 -30 -10 -36 -19 -68 -108 -19
-53 -38 -104 -41 -112 -8 -19 143 -98 248 -129 179 -54 401 -48 527 15 107 53
221 232 242 378 14 97 -1 213 -39 297 -35 77 -95 132 -327 300 -323 234 -346
256 -368 358 -30 143 71 261 226 261 80 0 149 -20 266 -76 90 -43 100 -46 127
-35 26 11 35 26 65 114 20 56 33 106 30 111 -8 12 -196 100 -258 120 -100 32
-210 41 -316 25z"/>
<path d="M26299 15419 c-131 -19 -255 -93 -324 -194 -54 -77 -76 -161 -76
-280 0 -121 23 -206 80 -291 56 -84 103 -126 296 -264 288 -208 343 -262 360
-351 11 -60 -11 -141 -48 -176 -55 -52 -94 -66 -194 -71 -80 -4 -105 -1 -175
22 -46 14 -109 42 -142 61 -53 32 -61 35 -91 25 -30 -10 -36 -19 -68 -108 -19
-53 -38 -104 -41 -112 -8 -19 143 -98 248 -129 179 -54 401 -48 527 15 107 53
221 232 242 378 14 97 -1 213 -39 297 -35 77 -95 132 -327 300 -323 234 -346
256 -368 358 -30 143 71 261 226 261 80 0 149 -20 266 -76 90 -43 100 -46 127
-35 26 11 35 26 65 114 20 56 33 106 30 111 -8 12 -196 100 -258 120 -100 32
-210 41 -316 25z"/>
<path d="M35028 15409 c-70 -10 -157 -45 -231 -92 l-56 -36 -3 40 c-2 31 -9
44 -30 57 -25 15 -32 15 -100 -3 -40 -10 -83 -22 -95 -26 l-23 -9 0 -878 0
-879 23 -21 c20 -19 35 -22 103 -22 71 0 83 3 102 23 l22 23 0 696 0 696 38
34 c115 104 209 143 325 135 129 -9 187 -56 224 -182 15 -54 17 -131 21 -720
4 -775 -8 -705 122 -705 67 0 79 3 98 23 l22 23 0 721 c0 680 -1 725 -19 782
-50 160 -184 282 -350 317 -73 15 -108 16 -193 3z"/>
<path d="M27575 15384 c-133 -17 -196 -45 -258 -114 -157 -174 -255 -588 -228
-960 22 -301 89 -499 213 -635 111 -121 219 -167 388 -168 207 -1 351 75 460
244 143 221 196 646 130 1035 -60 349 -236 569 -485 604 -83 11 -80 12 -220
-6z m220 -271 c95 -32 174 -138 208 -283 48 -200 48 -628 1 -775 -60 -183
-173 -285 -313 -285 -240 0 -354 251 -338 745 11 339 82 531 222 596 51 24
154 25 220 2z"/>
<path d="M29020 15389 c-239 -41 -408 -269 -476 -644 -26 -141 -26 -502 -1
-628 63 -311 206 -518 407 -588 95 -32 230 -31 322 3 87 33 162 78 234 143
l58 51 -33 92 c-40 109 -47 120 -87 124 -26 2 -42 -7 -92 -53 -77 -72 -139
-102 -219 -107 -78 -5 -136 20 -194 86 -57 65 -85 124 -115 244 -62 245 -34
689 53 837 39 66 99 127 150 152 94 45 223 11 334 -89 43 -39 50 -42 84 -34
36 7 38 10 71 97 19 50 34 95 34 101 0 19 -114 119 -172 152 -100 57 -242 81
-358 61z"/>
<path d="M29868 15372 l-98 -24 0 -882 0 -883 23 -21 c20 -19 35 -22 103 -22
71 0 83 3 102 23 l22 23 0 886 0 887 -27 19 c-28 19 -29 19 -125 -6z"/>
<path d="M30730 15389 c-46 -8 -327 -95 -339 -105 -4 -4 12 -71 40 -165 16
-55 24 -69 48 -79 26 -10 41 -7 148 37 l118 48 130 0 c119 0 133 -2 168 -24
68 -42 97 -133 97 -308 l0 -106 -37 7 c-445 79 -720 -59 -810 -404 -23 -92
-24 -312 0 -400 58 -218 202 -353 405 -382 135 -19 266 15 388 98 l64 44 0
-33 c0 -57 32 -77 121 -77 66 0 78 3 97 23 l22 23 0 685 c-1 532 -4 701 -14
761 -37 205 -143 313 -342 347 -91 15 -243 21 -304 10z m379 -945 l31 -6 0
-240 0 -240 -63 -63 c-93 -93 -131 -110 -247 -110 -110 0 -152 17 -213 84 -57
63 -70 103 -71 211 -2 192 62 307 196 349 50 16 92 20 199 20 75 1 151 -2 168
-5z"/>
<path d="M32558 15372 l-98 -24 0 -882 0 -883 23 -21 c20 -19 35 -22 103 -22
71 0 83 3 102 23 l22 23 0 886 0 887 -27 19 c-28 19 -29 19 -125 -6z"/>
<path d="M33485 15384 c-133 -17 -196 -45 -258 -114 -157 -174 -255 -588 -228
-960 22 -301 89 -499 213 -635 111 -121 219 -167 388 -168 207 -1 351 75 460
244 143 221 196 646 130 1035 -60 349 -236 569 -485 604 -83 11 -80 12 -220
-6z m220 -271 c95 -32 174 -138 208 -283 48 -200 48 -628 1 -775 -60 -183
-173 -285 -313 -285 -240 0 -354 251 -338 745 11 339 82 531 222 596 51 24
154 25 220 2z"/>
</g>
</svg>
